<?xml version="1.0" standalone="no"?>
<!DOCTYPE svg PUBLIC "-//W3C//DTD SVG 1.1//EN" "http://www.w3.org/Graphics/SVG/1.1/DTD/svg11.dtd">
<svg xmlns="http://www.w3.org/2000/svg" id="_レイヤー_2" width="50" height="50" viewBox="0 0 50 50"><g id="sideBar"><rect width="50" height="50" rx="5" ry="5" style="fill:#fff; stroke-width:0px;"/><path d="M19.8,43.33s0,.07-.01.08-.03.01-.07.01h-.56s-.08,0-.09-.02c0,0-.01-.03-.01-.07v-.25h-.69v.62s0,.07-.01.08-.03.01-.07.01h-.58c-.05,0-.08-.03-.08-.09l.02-2.63v-1.5l-.02-1.99s0-.08.02-.09c0,0,.03-.01.06-.01l.68.02h.66l.67-.02s.07,0,.07.02c0,.01.01.04.01.08l-.02,1.7v1.63l.02,2.42ZM19.06,38.22h-.69v1.66h.69v-1.66ZM18.37,42.35h.69v-1.74h-.69v1.74ZM19.34,43.77c1.15-.41,1.91-1.1,2.28-2.06l.07-.2h-.66l-.99.02s-.07,0-.07-.02-.01-.03-.01-.07v-.55s0-.07.02-.07.03-.01.07-.01c0,0,.03,0,.09,0,.06,0,.13,0,.21.01v-1.53l-.02-.79s0-.07.02-.07.04-.01.07-.01l1.03.02h.38v-.29c0-.39-.02-.73-.05-1.02.33,0,.6.03.82.05.09.02.13.05.13.1,0,.04-.02.09-.05.15-.03.08-.05.31-.05.7v.3h.5l1.02-.02s.08,0,.09.02c0,.01.01.03.01.07l-.02.79v1.53c.11,0,.22,0,.33-.01.07,0,.11,0,.11,0,.04,0,.07,0,.08.02,0,.01.01.03.01.07v.55s0,.06-.01.07-.04.01-.08.01l-1.1-.02h-.88c.43.93,1.16,1.63,2.16,2.1-.12.17-.23.37-.31.61-.04.13-.09.19-.13.19-.04,0-.1-.03-.18-.08-.88-.56-1.53-1.28-1.95-2.16-.38.9-1.11,1.63-2.17,2.19-.09.04-.16.06-.18.06-.04,0-.1-.06-.17-.18-.12-.2-.25-.35-.41-.47ZM21.83,39.37v-.24h-.74v1.68h.71c.02-.26.03-.74.03-1.44ZM22.56,40.81h.87v-1.68h-.82v.25c0,.53-.02,1.01-.05,1.43Z" style="fill:#000; stroke-width:0px;"/><path d="M25.16,40.18c.6-.66,1.07-1.5,1.43-2.54.06-.19.11-.38.13-.56.32.08.57.16.74.23.09.03.14.07.14.12,0,.04-.03.08-.08.14-.05.05-.12.18-.19.38-.12.34-.26.68-.43,1.02v4.14l.02,1.21s0,.07-.02.08c-.01,0-.04.01-.07.01h-.63s-.07,0-.07-.02-.01-.04-.01-.07l.02-1.21v-1.73c0-.24,0-.62.02-1.15-.13.19-.29.4-.49.64-.05.07-.1.11-.14.11-.03,0-.06-.06-.09-.17-.07-.24-.16-.45-.26-.62ZM27,43.42c1.09-.33,1.99-.77,2.7-1.33-.04-.12-.08-.21-.11-.27-.63.44-1.29.79-1.98,1.04-.08.03-.13.05-.16.05-.04,0-.08-.05-.12-.14-.07-.16-.16-.31-.29-.43.87-.26,1.61-.59,2.23-1.01-.04-.06-.1-.13-.17-.2-.44.26-.91.48-1.42.66-.08.03-.14.05-.18.05-.04,0-.08-.05-.12-.14-.09-.19-.18-.34-.29-.45.79-.2,1.42-.45,1.89-.75h-.16l-1.09.02s-.07,0-.07-.02-.01-.03-.01-.07l.02-.55v-.33l-.11.07c-.1.07-.16.11-.19.11-.03,0-.07-.05-.12-.14-.07-.13-.17-.27-.31-.43.65-.41,1.18-.94,1.59-1.58.11-.19.18-.36.22-.51.28.04.52.09.71.14.1.03.14.06.14.11,0,.06-.03.11-.1.14-.05.03-.12.11-.2.23h1.16c.09,0,.16,0,.2-.02.05-.02.09-.03.1-.03.06,0,.16.07.31.21.14.12.2.21.2.27,0,.05-.04.1-.11.14-.06.03-.12.1-.19.19-.12.16-.23.28-.32.38h.34l1.1-.02s.07,0,.08.02c0,.01.01.03.01.07l-.02.53v.48l.02.52s0,.07-.02.07c0,0-.03.01-.07.01l-1.1-.02h-.13c.07.33.18.65.32.96.13-.12.26-.26.4-.42.08-.09.15-.21.23-.35.28.16.47.28.58.36.07.05.11.1.11.13,0,.05-.04.09-.11.12-.08.03-.17.1-.27.21-.22.22-.42.41-.6.55.31.45.73.85,1.27,1.2-.14.16-.26.33-.35.51-.06.12-.12.18-.16.18-.04,0-.1-.04-.19-.12-.51-.44-.93-.96-1.25-1.54-.27-.5-.49-1.1-.66-1.8h-.16l-.38.28c.61.64.91,1.39.91,2.25,0,.49-.11.85-.32,1.07-.16.17-.37.25-.64.25-.17,0-.3,0-.41,0-.12,0-.2-.02-.22-.05-.02-.02-.04-.08-.06-.18-.04-.2-.1-.38-.18-.54.27.04.48.05.64.05.18,0,.3-.05.36-.16.06-.1.09-.3.09-.59,0-.06,0-.12-.01-.15-.64.51-1.38.92-2.24,1.23-.08.03-.13.04-.15.04-.04,0-.08-.05-.12-.14-.09-.19-.19-.35-.31-.47ZM28.4,39.97h1.14v-.58h-1.14v.58ZM28.49,38.83h1.32c.17-.17.32-.34.43-.51h-1.3c-.18.22-.33.39-.44.51ZM31.46,39.97v-.58h-1.19v.58h1.19Z" style="fill:#000; stroke-width:0px;"/><rect x="5" y="3" width="40" height="28" rx="2" ry="2" style="fill:gray; stroke-width:0px;"/><line x1="5" y1="26" x2="45" y2="26" style="fill:none; stroke:#fff; stroke-miterlimit:10;"/><circle cx="25" cy="14.5" r="7.5" style="fill:#fff; stroke-width:0px;"/><path d="M22.97,18.5c-.48.28-.87.05-.87-.5v-7c0-.55.39-.77.87-.5l6.06,3.5c.48.28.48.73,0,1l-6.06,3.5Z" style="fill:gray; stroke-width:0px;"/></g></svg>